<svg xmlns="http://www.w3.org/2000/svg" width="1200" height="360" viewBox="0 0 1200 360" fill="none">
  <rect width="1200" height="360" fill="#F6F0E8"/>
  <rect x="40" y="110" width="190" height="120" rx="24" fill="#FFF9F2" stroke="#D8CCBE"/>
  <text x="135" y="150" text-anchor="middle" font-family="Arial, sans-serif" font-size="26" fill="#241D19">Telegram</text>
  <text x="135" y="184" text-anchor="middle" font-family="Arial, sans-serif" font-size="26" fill="#241D19">JSON export</text>
  <rect x="290" y="110" width="190" height="120" rx="24" fill="#FFF9F2" stroke="#D8CCBE"/>
  <text x="385" y="150" text-anchor="middle" font-family="Arial, sans-serif" font-size="26" fill="#241D19">Parser +</text>
  <text x="385" y="184" text-anchor="middle" font-family="Arial, sans-serif" font-size="26" fill="#241D19">normalizer</text>
  <rect x="540" y="110" width="190" height="120" rx="24" fill="#FFF9F2" stroke="#D8CCBE"/>
  <text x="635" y="150" text-anchor="middle" font-family="Arial, sans-serif" font-size="26" fill="#241D19">Temporal</text>
  <text x="635" y="184" text-anchor="middle" font-family="Arial, sans-serif" font-size="26" fill="#241D19">scoring</text>
  <rect x="790" y="55" width="190" height="100" rx="24" fill="#EEF9F0" stroke="#BFD8C3"/>
  <text x="885" y="108" text-anchor="middle" font-family="Arial, sans-serif" font-size="24" fill="#1F3D28">Optional local</text>
  <text x="885" y="138" text-anchor="middle" font-family="Arial, sans-serif" font-size="24" fill="#1F3D28">Ollama LLM</text>
  <rect x="790" y="185" width="190" height="100" rx="24" fill="#FFF9F2" stroke="#D8CCBE"/>
  <text x="885" y="238" text-anchor="middle" font-family="Arial, sans-serif" font-size="24" fill="#241D19">Graph +</text>
  <text x="885" y="268" text-anchor="middle" font-family="Arial, sans-serif" font-size="24" fill="#241D19">timeseries</text>
  <rect x="1040" y="110" width="120" height="120" rx="24" fill="#FFF9F2" stroke="#D8CCBE"/>
  <text x="1100" y="150" text-anchor="middle" font-family="Arial, sans-serif" font-size="24" fill="#241D19">HTML</text>
  <text x="1100" y="182" text-anchor="middle" font-family="Arial, sans-serif" font-size="24" fill="#241D19">report</text>
  <path d="M230 170H280" stroke="#8E7E6D" stroke-width="4" stroke-linecap="round"/>
  <path d="M480 170H530" stroke="#8E7E6D" stroke-width="4" stroke-linecap="round"/>
  <path d="M730 170H780" stroke="#8E7E6D" stroke-width="4" stroke-linecap="round"/>
  <path d="M980 170H1030" stroke="#8E7E6D" stroke-width="4" stroke-linecap="round"/>
  <path d="M885 155V180" stroke="#8E7E6D" stroke-width="4" stroke-linecap="round"/>
</svg>
